<?xml version="1.0" encoding="UTF-8"?>
<svg id="Camada_2" data-name="Camada 2" xmlns="http://www.w3.org/2000/svg" viewBox="0 0 309.96 58.09">
  <defs>
    <style>
      .cls-1 {
        fill: #f2d22b;
      }

      .cls-2 {
        fill: #211915;
      }
    </style>
  </defs>
  <g id="Camada_1-2" data-name="Camada 1">
    <g>
      <path class="cls-1" d="M58.49.32L16.86,57.6H0L41.55.32h16.94Z"/>
      <path class="cls-2" d="M59.7,28.48c0-3.5.66-6.94,1.98-10.33,1.32-3.39,3.24-6.43,5.77-9.12,2.53-2.69,5.59-4.87,9.2-6.54,3.6-1.67,7.72-2.5,12.34-2.5,5.54,0,10.34,1.14,14.4,3.43,4.06,2.29,7.09,5.31,9.08,9.08l-12.02,8.55c-.54-1.4-1.25-2.55-2.14-3.47-.89-.91-1.87-1.64-2.94-2.18-1.08-.54-2.19-.91-3.35-1.13-1.16-.21-2.27-.32-3.35-.32-2.26,0-4.21.44-5.85,1.33-1.64.89-2.98,2.04-4.03,3.47-1.05,1.43-1.83,3.04-2.34,4.84-.51,1.8-.77,3.59-.77,5.37,0,1.99.29,3.9.89,5.73.59,1.83,1.45,3.44,2.58,4.84,1.13,1.4,2.51,2.52,4.15,3.35,1.64.83,3.48,1.25,5.53,1.25,1.08,0,2.18-.12,3.31-.36,1.13-.24,2.22-.65,3.27-1.21,1.05-.56,1.99-1.29,2.82-2.18.83-.89,1.49-1.98,1.98-3.27l12.83,7.66c-.86,2.1-2.17,3.98-3.91,5.65-1.75,1.67-3.74,3.07-5.97,4.2-2.23,1.13-4.63,1.99-7.18,2.58-2.56.59-5.04.89-7.46.89-4.25,0-8.14-.85-11.66-2.54-3.52-1.69-6.56-3.94-9.12-6.74-2.56-2.8-4.53-5.97-5.93-9.52-1.4-3.55-2.1-7.15-2.1-10.81Z"/>
      <path class="cls-2" d="M118.6,57.6V.32h15.73v43.57h25.98v13.71h-41.71Z"/>
      <path class="cls-2" d="M180.63.32h14.36l19.85,57.28h-15.97l-3.47-11.21h-15.25l-3.39,11.21h-16.05L180.63.32ZM192.9,35.9l-5.08-17.75-5.32,17.75h10.41Z"/>
      <path class="cls-2" d="M225.97.32l11.21,37.52L248.24.32h16.54l-21.06,57.28h-13.07L209.35.32h16.62Z"/>
      <path class="cls-2" d="M309.96,43.89v13.71h-40.82V.32h40.1v13.72h-24.36v8.07h20.81v12.75h-20.81v9.04h25.09Z"/>
    </g>
  </g>
</svg>